<svg width="44" height="44" viewBox="0 0 44 44" fill="none" xmlns="http://www.w3.org/2000/svg">
<path d="M11.2908 34.527C11.2908 36.5259 12.9263 38.1614 14.9253 38.1614H29.4629C31.4619 38.1614 33.0974 36.5259 33.0974 34.527V16.3549C33.0974 14.356 31.4619 12.7205 29.4629 12.7205H14.9253C12.9263 12.7205 11.2908 14.356 11.2908 16.3549V34.527ZM33.0974 7.26884H28.5543L27.2641 5.97862C26.937 5.65152 26.4645 5.45163 25.9921 5.45163H18.3961C17.9237 5.45163 17.4512 5.65152 17.1241 5.97862L15.8339 7.26884H11.2908C10.2914 7.26884 9.47363 8.08658 9.47363 9.08604C9.47363 10.0855 10.2914 10.9033 11.2908 10.9033H33.0974C34.0968 10.9033 34.9146 10.0855 34.9146 9.08604C34.9146 8.08658 34.0968 7.26884 33.0974 7.26884Z" fill="white"/>
</svg>
