<svg width="171" height="26" viewBox="0 0 171 26" fill="none" xmlns="http://www.w3.org/2000/svg">
<path d="M23 15.784H8.216V19.4L25.688 19.272V25H0.312V1.32H25.688L25.72 7.048H8.216V10.184H23V15.784ZM45.2185 10.92C47.3092 10.92 49.1332 11.0693 50.6905 11.368C52.2692 11.6453 53.5812 12.2533 54.6265 13.192C55.6932 14.1307 56.2265 15.496 56.2265 17.288C56.2265 20.5947 54.7545 22.8347 51.8105 24.008C48.8878 25.16 45.6025 25.736 41.9545 25.736C38.3278 25.736 34.9678 25.1493 31.8745 23.976C28.7812 22.7813 27.2345 20.52 27.2345 17.192L35.3945 17.16C35.3945 18.632 36.0558 19.5707 37.3785 19.976C38.7225 20.36 40.2905 20.552 42.0825 20.552C43.7678 20.552 45.2078 20.3067 46.4025 19.816C47.6185 19.3253 48.2265 18.5253 48.2265 17.416V17.384C48.2265 16.7653 47.8532 16.3067 47.1065 16.008C46.3598 15.7093 45.5598 15.528 44.7065 15.464C43.8532 15.4 42.8292 15.3573 41.6345 15.336H39.2345C36.9305 15.336 34.9252 15.1973 33.2185 14.92C31.5332 14.6213 30.1145 13.9813 28.9625 13C27.8105 12.0187 27.2345 10.568 27.2345 8.648C27.2345 5.32 28.7278 3.15466 31.7145 2.152C34.7225 1.128 38.1358 0.615999 41.9545 0.615999C45.5385 0.615999 48.8132 1.20267 51.7785 2.376C54.7438 3.54933 56.2265 5.81067 56.2265 9.16H48.1945C48.1945 8.09333 47.5865 7.304 46.3705 6.792C45.1758 6.25867 43.7145 5.96 41.9865 5.896C40.1305 5.896 38.5625 6.10933 37.2825 6.536C36.0025 6.96267 35.3625 7.63467 35.3625 8.552C35.3625 9.512 36.0132 10.152 37.3145 10.472C38.6158 10.792 40.0878 10.952 41.7305 10.952L45.2185 10.92ZM66.1223 25H58.2183V1.32L66.1223 25ZM88.4583 25H80.5863H88.4583ZM80.5863 15.816V1.32H88.4583V25H80.5863L66.1223 10.504V25H58.2183V1.32H66.1223L80.5863 15.816ZM99.0285 9.736H111.669V1.32H119.541V25H111.669V15.944H99.0285V25H91.1245V1.32H99.0285V9.736ZM137.324 7.56H144.684V25H137.324V22.824C135.702 24.6587 133.238 25.576 129.932 25.576C127.308 25.576 125.27 24.7333 123.82 23.048C122.39 21.3627 121.676 18.6 121.676 14.76V7.56H129.036V14.664C129.036 16.008 129.11 17.1067 129.26 17.96C129.409 18.8133 129.772 19.528 130.348 20.104C130.924 20.68 131.82 20.968 133.036 20.968C134.721 20.968 135.852 20.392 136.428 19.24C137.025 18.0667 137.324 16.5413 137.324 14.664V7.56ZM170.459 16.008C170.438 17.7573 170.065 19.3467 169.339 20.776C168.614 22.184 167.611 23.304 166.331 24.136C165.073 24.9467 163.622 25.352 161.979 25.352C158.118 25.4373 155.291 24.6053 153.499 22.856L153.115 24.936H146.363V1.32H153.723V9.416C155.537 7.752 158.289 6.92 161.979 6.92C163.622 6.92 165.083 7.34667 166.363 8.2C167.643 9.032 168.635 10.1307 169.339 11.496C170.043 12.8613 170.417 14.3013 170.459 15.816V15.912V16.008ZM158.299 21.032C159.835 21.032 161.009 20.5627 161.819 19.624C162.63 18.664 163.046 17.448 163.067 15.976C163.046 14.696 162.619 13.5973 161.787 12.68C160.977 11.7413 159.814 11.272 158.299 11.272C156.934 11.272 155.825 11.72 154.971 12.616C154.139 13.512 153.723 14.7067 153.723 16.2V16.296C153.723 17.128 153.915 17.9067 154.299 18.632C154.705 19.3573 155.249 19.944 155.931 20.392C156.635 20.8187 157.425 21.032 158.299 21.032Z" fill="#6600CC"/>
</svg>
