<svg width="77" height="77" viewBox="0 0 77 77" fill="none" xmlns="http://www.w3.org/2000/svg">
<circle cx="38.5" cy="38.5" r="37" stroke="#6600CC" stroke-width="3"/>
<path d="M26.0085 29.5455V47H22.3182V33.0483H22.2159L18.2188 35.554V32.2812L22.5398 29.5455H26.0085ZM36.8558 47.2386C35.9581 47.233 35.0916 47.0824 34.2564 46.7869C33.4268 46.4915 32.6825 46.0114 32.0234 45.3466C31.3643 44.6818 30.8416 43.8011 30.4553 42.7045C30.0746 41.608 29.8842 40.2614 29.8842 38.6648C29.8899 37.1989 30.0575 35.8892 30.3871 34.7358C30.7223 33.5767 31.1996 32.5937 31.8189 31.7869C32.4439 30.9801 33.1911 30.3665 34.0604 29.946C34.9297 29.5199 35.9041 29.3068 36.9837 29.3068C38.1484 29.3068 39.1768 29.5341 40.0689 29.9886C40.9609 30.4375 41.6768 31.0483 42.2166 31.821C42.7621 32.5938 43.0916 33.4602 43.2053 34.4205H39.5661C39.424 33.8125 39.1257 33.3352 38.6712 32.9886C38.2166 32.642 37.6541 32.4688 36.9837 32.4688C35.8473 32.4688 34.9837 32.9631 34.3928 33.9517C33.8075 34.9403 33.5092 36.2841 33.4979 37.983H33.6172C33.8786 37.4659 34.2308 37.0256 34.674 36.6619C35.1229 36.2926 35.6314 36.0114 36.1996 35.8182C36.7734 35.6193 37.3786 35.5199 38.0149 35.5199C39.049 35.5199 39.9695 35.7642 40.7763 36.2528C41.5831 36.7358 42.2195 37.4006 42.6854 38.2472C43.1513 39.0937 43.3842 40.0625 43.3842 41.1534C43.3842 42.3352 43.1087 43.3864 42.5575 44.3068C42.0121 45.2273 41.2479 45.9489 40.2649 46.4716C39.2876 46.9886 38.1513 47.2443 36.8558 47.2386ZM36.8388 44.3409C37.407 44.3409 37.9155 44.2045 38.3643 43.9318C38.8132 43.6591 39.1655 43.2898 39.4212 42.8239C39.6768 42.358 39.8047 41.8352 39.8047 41.2557C39.8047 40.6761 39.6768 40.1562 39.4212 39.696C39.1712 39.2358 38.8246 38.8693 38.3814 38.5966C37.9382 38.3239 37.4325 38.1875 36.8643 38.1875C36.4382 38.1875 36.0433 38.267 35.6797 38.4261C35.3217 38.5852 35.0064 38.8068 34.7337 39.0909C34.4666 39.375 34.2564 39.7045 34.103 40.0795C33.9496 40.4489 33.8729 40.8437 33.8729 41.2642C33.8729 41.8267 34.0007 42.3409 34.2564 42.8068C34.5178 43.2727 34.87 43.6449 35.3132 43.9233C35.7621 44.2017 36.2706 44.3409 36.8388 44.3409ZM51.2166 44.3409V32.2727H54.2678V44.3409H51.2166ZM46.7081 39.8324V36.7812H58.7763V39.8324H46.7081Z" fill="#6600CC"/>
</svg>
